<svg width="72" height="72" fill="none" xmlns="http://www.w3.org/2000/svg"><defs><linearGradient id="a" x1="-35.849" y1="35.849" x2="35.849" y2="107.547" gradientUnits="userSpaceOnUse"><stop stop-color="#33D35E"/><stop offset="1" stop-color="#2AB6D9"/></linearGradient></defs><circle cx="36" cy="36" r="36" fill="url(#a)"/><circle cx="36" cy="36" r="36"/><path d="M47.725 26.662v-7.57A3.096 3.096 0 0 0 44.633 16H27.099a3.096 3.096 0 0 0-3.092 3.092v23.796a.587.587 0 1 0 1.174 0V22.184h21.37v4.478c-.898.05-1.764.21-2.584.468v-2.402a.587.587 0 0 0-.587-.587H28.351a.587.587 0 0 0-.587.587v12.838c0 .154.063.305.172.415l4.697 4.696c.108.11.26.172.415.172h6.705l-1.308 3.596c-.18.496.367.97.833.716l4.383-2.39c.93.323 1.898.513 2.89.567v3.852H25.18v-3.523a.587.587 0 1 0-1.174 0v7.241A3.095 3.095 0 0 0 27.098 56h17.535a3.096 3.096 0 0 0 3.092-3.092v-7.57c5.23-.286 9.393-4.365 9.393-9.338 0-4.973-4.162-9.052-9.393-9.338ZM25.18 21.01v-1.918a1.92 1.92 0 0 1 1.918-1.918h17.534a1.92 1.92 0 0 1 1.918 1.918v1.918H25.18Zm9.432-2.505h2.505a.587.587 0 1 1 0 1.174h-2.505a.587.587 0 1 1 0-1.174Zm-.978 23.17v-4.11a.587.587 0 0 0-.587-.587h-4.11V25.315h13.855v2.265c-.604.275-1.175.606-1.704.985a.583.583 0 0 0-.213-.04h-3.131a.587.587 0 1 0 0 1.174h2.023a9.423 9.423 0 0 0-1.467 1.957h-6.819a.587.587 0 1 0 0 1.174h6.266a8.788 8.788 0 0 0-.59 3.17c0 2.083.717 4.054 2.044 5.675h-5.567ZM43.82 43.58a9.343 9.343 0 0 0 3.318.601c4.855 0 8.806-3.67 8.806-8.18s-3.95-8.18-8.806-8.18c-4.856 0-8.806 3.67-8.806 8.18 0 2.217.94 4.293 2.647 5.846.177.16.239.41.157.635l-1.056 2.905 3.251-1.773a.587.587 0 0 1 .49-.034Zm-8.58-15.055h-3.758a.587.587 0 1 0 0 1.175h3.758a.587.587 0 1 0 0-1.175Zm14.99 5.597a.587.587 0 1 1-1.175 0v-.626c0-.712-.579-1.291-1.291-1.291h-.94c-.884 0-1.604.72-1.604 1.604 0 .885.72 1.605 1.605 1.605h.626a2.782 2.782 0 0 1 2.779 2.779c0 1.44-1.101 2.627-2.505 2.765v1.305a.587.587 0 0 1-1.174 0v-1.291h-.04a2.469 2.469 0 0 1-2.465-2.466.587.587 0 1 1 1.174 0c0 .712.58 1.291 1.291 1.291h.94c.885 0 1.604-.72 1.604-1.604 0-.885-.72-1.605-1.604-1.605h-.627a2.782 2.782 0 0 1-2.778-2.779c0-1.44 1.1-2.627 2.505-2.765v-1.305a.587.587 0 1 1 1.174 0v1.291h.039a2.469 2.469 0 0 1 2.466 2.466v.626Zm-18.748.666h4.384a.587.587 0 1 1 0 1.174h-4.384a.587.587 0 1 1 0-1.174Zm-1.714 3.366 2.693 2.692v-2.692h-2.693Zm14.865 16.673a1.92 1.92 0 0 0 1.918-1.918v-2.544H25.18v2.544a1.92 1.92 0 0 0 1.918 1.918h17.534Zm-10.02-3.758h2.505c.325 0 .587.263.587.588v1.878a.587.587 0 0 1-.587.587h-2.505a.587.587 0 0 1-.587-.587v-1.878c0-.325.263-.587.587-.587Zm.587 1.88h1.331v-.705h-1.33v.704Z" clip-rule="evenodd" fill="#FFF" fill-rule="evenodd"/></svg>